<svg width="113" height="113" viewBox="0 0 113 113" fill="none" xmlns="http://www.w3.org/2000/svg">
<path d="M49.4375 14.125C35.8281 14.125 24.7188 25.2343 24.7188 38.8438C24.7188 47.3541 29.0622 54.918 35.6444 59.3709C23.0485 64.7737 14.125 77.2638 14.125 91.8125H21.1875C21.1875 76.1691 33.7941 63.5625 49.4375 63.5625C54.2965 63.5625 58.8094 64.8267 62.7856 66.9878C58.7178 72.0138 56.4989 78.2841 56.5 84.75C56.5 100.309 69.1913 113 84.75 113C100.309 113 113 100.309 113 84.75C113 69.1913 100.309 56.5 84.75 56.5C78.7998 56.508 73.0049 58.3993 68.1955 61.9028C66.6347 60.9247 64.9468 60.1019 63.2306 59.3674C66.5913 57.1009 69.3448 54.0446 71.2496 50.4664C73.1545 46.8882 74.1525 42.8974 74.1562 38.8438C74.1562 25.2343 63.0469 14.125 49.4375 14.125ZM49.4375 21.1875C59.2297 21.1875 67.0938 29.0516 67.0938 38.8438C67.0938 48.6359 59.2297 56.5 49.4375 56.5C39.6453 56.5 31.7812 48.6359 31.7812 38.8438C31.7812 29.0516 39.6453 21.1875 49.4375 21.1875ZM84.75 63.5625C96.4949 63.5625 105.938 73.0051 105.938 84.75C105.938 96.4949 96.4949 105.938 84.75 105.938C73.0051 105.938 63.5625 96.4949 63.5625 84.75C63.5625 73.0051 73.0051 63.5625 84.75 63.5625ZM81.2188 70.625V81.2188H70.625V88.2812H81.2188V98.875H88.2812V88.2812H98.875V81.2188H88.2812V70.625H81.2188Z" fill="black"/>
</svg>
